<svg width="70" height="70" viewBox="0 0 70 70" fill="none" xmlns="http://www.w3.org/2000/svg">
<path d="M60.7264 4.375H9.60859C6.81543 4.375 4.375 6.38477 4.375 9.14512V60.3764C4.375 63.1518 6.81543 65.625 9.60859 65.625H60.7113C63.5195 65.625 65.625 63.1353 65.625 60.3764V9.14512C65.6414 6.38477 63.5195 4.375 60.7264 4.375ZM23.3611 55.4299H14.5865V28.1477H23.3611V55.4299ZM19.2773 23.9996H19.2145C16.4062 23.9996 14.5879 21.9092 14.5879 19.2924C14.5879 16.6277 16.4541 14.5865 19.3252 14.5865C22.1963 14.5865 23.9531 16.6127 24.016 19.2924C24.0146 21.9092 22.1963 23.9996 19.2773 23.9996ZM55.4299 55.4299H46.6553V40.5125C46.6553 36.9387 45.3783 34.4969 42.2037 34.4969C39.7783 34.4969 38.3428 36.1375 37.7043 37.7357C37.465 38.31 37.4008 39.092 37.4008 39.8904V55.4299H28.6262V28.1477H37.4008V31.9443C38.6777 30.126 40.6725 27.5092 45.3141 27.5092C51.074 27.5092 55.4312 31.3059 55.4312 39.4912L55.4299 55.4299Z" fill="#F4F4F4"/>
</svg>
