<svg width="70" height="70" viewBox="0 0 70 70" fill="none" xmlns="http://www.w3.org/2000/svg">
<path d="M35 4.375C18.0879 4.375 4.375 18.4434 4.375 35.7793C4.375 49.6562 13.1523 61.4141 25.3203 65.5703C25.491 65.6074 25.6652 65.6257 25.8398 65.625C26.9746 65.625 27.4121 64.791 27.4121 64.0664C27.4121 63.3145 27.3848 61.3457 27.3711 58.7207C26.3581 58.9582 25.3217 59.082 24.2812 59.0898C18.3887 59.0898 17.0488 54.5098 17.0488 54.5098C15.6543 50.8867 13.6445 49.916 13.6445 49.916C10.9785 48.043 13.6309 47.9883 13.8359 47.9883H13.8496C16.9258 48.2617 18.5391 51.2422 18.5391 51.2422C20.0703 53.9219 22.1211 54.6738 23.9531 54.6738C25.1645 54.6496 26.3571 54.3701 27.4531 53.8535C27.7266 51.8301 28.5195 50.4492 29.3945 49.6562C22.5996 48.8633 15.4492 46.1699 15.4492 34.1387C15.4492 30.707 16.6387 27.9043 18.5938 25.7168C18.2793 24.9238 17.2266 21.7246 18.8945 17.4043C19.1183 17.3508 19.3482 17.3278 19.5781 17.3359C20.6855 17.3359 23.1875 17.7598 27.3164 20.6309C32.3334 19.2272 37.6393 19.2272 42.6562 20.6309C46.7852 17.7598 49.2871 17.3359 50.3945 17.3359C50.6244 17.3278 50.8544 17.3508 51.0781 17.4043C52.7461 21.7246 51.6934 24.9238 51.3789 25.7168C53.334 27.918 54.5234 30.7207 54.5234 34.1387C54.5234 46.1973 47.3594 48.8496 40.5371 49.6289C41.6309 50.5996 42.6152 52.5137 42.6152 55.4395C42.6152 59.6367 42.5742 63.0273 42.5742 64.0527C42.5742 64.791 42.998 65.625 44.1328 65.625C44.3165 65.6258 44.4998 65.6075 44.6797 65.5703C56.8613 61.4141 65.625 49.6426 65.625 35.7793C65.625 18.4434 51.9121 4.375 35 4.375Z" fill="#F4F4F4"/>
</svg>
