<svg width="60" height="60" viewBox="0 0 60 60" fill="none" xmlns="http://www.w3.org/2000/svg">
<path d="M25.909 7.5C22.268 7.5 18.7088 8.57967 15.6815 10.6025C12.6542 12.6253 10.2946 15.5004 8.90129 18.8642C7.50796 22.228 7.1434 25.9294 7.85372 29.5004C8.56403 33.0714 10.3173 36.3516 12.8919 38.9261C15.4664 41.5006 18.7466 43.2539 22.3176 43.9642C25.8886 44.6746 29.59 44.31 32.9538 42.9167C36.3176 41.5233 39.1927 39.1638 41.2155 36.1365C43.2383 33.1091 44.318 29.5499 44.318 25.909C44.3177 21.0267 42.378 16.3445 38.9258 12.8922C35.4735 9.43992 30.7912 7.50031 25.909 7.5V7.5Z" stroke="black" stroke-opacity="0.6" stroke-width="4.875" stroke-miterlimit="10"/>
<path d="M39.6434 39.6434L52.5 52.5" stroke="black" stroke-opacity="0.6" stroke-width="4.875" stroke-miterlimit="10" stroke-linecap="round"/>
</svg>
